<svg xmlns="http://www.w3.org/2000/svg" viewBox="0 0 1200 600" font-family="monospace">
<rect width="1200" height="600" fill="#141313"/>
<rect x="0.5" y="0.5" width="1199" height="599" fill="none" stroke="#444748"/>
<line x1="40" y1="420" x2="1160" y2="420" stroke="#444748"/><polyline points="40,327 54,346 68,320 82,335 96,342 110,316 124,312 138,342 152,328 166,347 180,326 194,324 208,342 222,346 236,347 250,342 264,337 278,321 292,326 306,321 320,345 334,336 348,312 362,316 376,322 390,314 404,331 418,313 432,329 446,342 460,336 474,339 488,337 502,348 516,340 530,320 544,335 558,318 572,314 586,320 600,343 614,325 628,328 642,339 656,331 670,338 684,344 698,336 712,348 726,334 740,346 754,338 768,140 782,333 796,313 810,329 824,322 838,332 852,346 866,348 880,348 894,318 908,325 922,348 936,329 950,330 964,319 978,316 992,342 1006,342 1020,317 1034,334 1048,316 1062,338 1076,321 1090,313 1104,330 1118,339 1132,338 1146,319" fill="none" stroke="#c4c7c8" stroke-width="1"/><circle cx="768" cy="140" r="6" fill="none" stroke="#ffffff" stroke-width="1.5"/><text x="768" y="110" fill="#ffffff" font-size="13" text-anchor="middle" letter-spacing="2">ANOMALY_DETECTED</text>
<text x="40" y="570" fill="#636565" font-size="14" letter-spacing="2">ARCH_VIEW_004.SYS // LOG_ANOMALY_SENTRY</text>
</svg>