<svg xmlns="http://www.w3.org/2000/svg" viewBox="0 0 1200 600" font-family="monospace">
<rect width="1200" height="600" fill="#141313"/>
<rect x="0.5" y="0.5" width="1199" height="599" fill="none" stroke="#444748"/>
<rect x="120" y="180" width="260" height="140" fill="#201f1f" stroke="#444748" stroke-opacity="1"/><text x="250.0" y="255.0" fill="#c4c7c8" font-size="15" text-anchor="middle" letter-spacing="2">INGEST_LAYER</text><rect x="470" y="160" width="260" height="180" fill="#201f1f" stroke="#ffffff" stroke-opacity="0.6"/><text x="600.0" y="255.0" fill="#c4c7c8" font-size="15" text-anchor="middle" letter-spacing="2">COMPUTE_NODE</text><rect x="820" y="180" width="260" height="140" fill="#201f1f" stroke="#444748" stroke-opacity="1"/><text x="950.0" y="255.0" fill="#c4c7c8" font-size="15" text-anchor="middle" letter-spacing="2">INFERENCE_API</text><line x1="380" y1="250" x2="470" y2="250" stroke="#444748"/><line x1="730" y1="250" x2="820" y2="250" stroke="#444748"/><polyline points="40,430 59,424 77,419 96,414 115,409 133,404 152,399 171,395 189,391 208,387 227,384 245,380 264,377 283,374 301,371 320,368 339,365 357,363 376,360 395,358 413,355 432,353 451,351 469,349 488,348 507,346 525,344 544,343 563,341 581,340 600,338 619,337 637,336 656,335 675,334 693,333 712,332 731,331 749,330 768,329 787,328 805,327 824,327 843,326 861,325 880,325 899,324 917,323 936,323 955,322 973,322 992,321 1011,321 1029,320 1048,320 1067,320 1085,319 1104,319 1123,319 1141,318 1160,318" fill="none" stroke="#ffffff" stroke-width="1.5" opacity="0.9"/><circle cx="1160" cy="318" r="5" fill="#ffffff"/>
<text x="40" y="570" fill="#636565" font-size="14" letter-spacing="2">ARCH_VIEW_001.SYS // DISTRIBUTED_LATENCY</text>
</svg>