<svg xmlns="http://www.w3.org/2000/svg" viewBox="0 0 1200 600" font-family="monospace">
<rect width="1200" height="600" fill="#141313"/>
<rect x="0.5" y="0.5" width="1199" height="599" fill="none" stroke="#444748"/>
<line x1="300" y1="300" x2="450" y2="180" stroke="#444748"/><line x1="300" y1="300" x2="470" y2="400" stroke="#444748"/><line x1="450" y1="180" x2="620" y2="260" stroke="#444748"/><line x1="470" y1="400" x2="620" y2="260" stroke="#444748"/><line x1="620" y1="260" x2="760" y2="380" stroke="#444748"/><line x1="620" y1="260" x2="780" y2="160" stroke="#444748"/><line x1="760" y1="380" x2="920" y2="280" stroke="#444748"/><line x1="780" y1="160" x2="920" y2="280" stroke="#444748"/><line x1="470" y1="400" x2="600" y2="470" stroke="#444748"/><line x1="760" y1="380" x2="600" y2="470" stroke="#444748"/><circle cx="300" cy="300" r="10" fill="#201f1f" stroke="#c4c7c8"/><circle cx="450" cy="180" r="10" fill="#201f1f" stroke="#c4c7c8"/><circle cx="470" cy="400" r="10" fill="#201f1f" stroke="#c4c7c8"/><circle cx="620" cy="260" r="10" fill="#201f1f" stroke="#c4c7c8"/><circle cx="760" cy="380" r="10" fill="#201f1f" stroke="#c4c7c8"/><circle cx="780" cy="160" r="10" fill="#201f1f" stroke="#c4c7c8"/><circle cx="920" cy="280" r="10" fill="#201f1f" stroke="#c4c7c8"/><circle cx="600" cy="470" r="10" fill="#201f1f" stroke="#c4c7c8"/><circle cx="620" cy="260" r="10" fill="#ffffff"/><text x="620" y="120" fill="#c4c7c8" font-size="15" text-anchor="middle" letter-spacing="3">MESSAGE_PASSING_GRAPH</text>
<text x="40" y="570" fill="#636565" font-size="14" letter-spacing="2">ARCH_VIEW_003.SYS // GNN_MOLECULAR_FLOW</text>
</svg>