<svg xmlns="http://www.w3.org/2000/svg" viewBox="0 0 1200 600" font-family="monospace">
<rect width="1200" height="600" fill="#141313"/>
<rect x="0.5" y="0.5" width="1199" height="599" fill="none" stroke="#444748"/>
<rect x="480" y="200" width="240" height="200" fill="#1c1b1b" stroke="#ffffff" stroke-opacity="0.6"/><line x1="500" y1="220" x2="500" y2="380" stroke="#444748"/><line x1="500" y1="220" x2="700" y2="220" stroke="#444748"/><line x1="540" y1="220" x2="540" y2="380" stroke="#444748"/><line x1="500" y1="252" x2="700" y2="252" stroke="#444748"/><line x1="580" y1="220" x2="580" y2="380" stroke="#444748"/><line x1="500" y1="284" x2="700" y2="284" stroke="#444748"/><line x1="620" y1="220" x2="620" y2="380" stroke="#444748"/><line x1="500" y1="316" x2="700" y2="316" stroke="#444748"/><line x1="660" y1="220" x2="660" y2="380" stroke="#444748"/><line x1="500" y1="348" x2="700" y2="348" stroke="#444748"/><line x1="700" y1="220" x2="700" y2="380" stroke="#444748"/><line x1="500" y1="380" x2="700" y2="380" stroke="#444748"/><line x1="510" y1="200" x2="510" y2="180" stroke="#c4c7c8"/><line x1="510" y1="400" x2="510" y2="420" stroke="#c4c7c8"/><line x1="530" y1="200" x2="530" y2="180" stroke="#c4c7c8"/><line x1="530" y1="400" x2="530" y2="420" stroke="#c4c7c8"/><line x1="550" y1="200" x2="550" y2="180" stroke="#c4c7c8"/><line x1="550" y1="400" x2="550" y2="420" stroke="#c4c7c8"/><line x1="570" y1="200" x2="570" y2="180" stroke="#c4c7c8"/><line x1="570" y1="400" x2="570" y2="420" stroke="#c4c7c8"/><line x1="590" y1="200" x2="590" y2="180" stroke="#c4c7c8"/><line x1="590" y1="400" x2="590" y2="420" stroke="#c4c7c8"/><line x1="610" y1="200" x2="610" y2="180" stroke="#c4c7c8"/><line x1="610" y1="400" x2="610" y2="420" stroke="#c4c7c8"/><line x1="630" y1="200" x2="630" y2="180" stroke="#c4c7c8"/><line x1="630" y1="400" x2="630" y2="420" stroke="#c4c7c8"/><line x1="650" y1="200" x2="650" y2="180" stroke="#c4c7c8"/><line x1="650" y1="400" x2="650" y2="420" stroke="#c4c7c8"/><line x1="670" y1="200" x2="670" y2="180" stroke="#c4c7c8"/><line x1="670" y1="400" x2="670" y2="420" stroke="#c4c7c8"/><line x1="690" y1="200" x2="690" y2="180" stroke="#c4c7c8"/><line x1="690" y1="400" x2="690" y2="420" stroke="#c4c7c8"/><text x="600" y="160" fill="#c4c7c8" font-size="15" text-anchor="middle" letter-spacing="3">INT8_QUANTIZED_CORE</text><text x="600" y="460" fill="#636565" font-size="13" text-anchor="middle" letter-spacing="2">512MB_RAM_BUDGET</text>
<text x="40" y="570" fill="#636565" font-size="14" letter-spacing="2">ARCH_VIEW_002.SYS // TRANSFORMER_EDGE_OPT</text>
</svg>